# xmcd
#
# Track frame offsets: 
#        150
#        27042
#        43466
#        59069
#        79010
#        94849
#        120328
#
# Disc length: 1857 seconds
#
# Revision: 0
# Processed by: cddbd v1.5.2PL0 Copyright (c) Steve Scherf et al.
# Submitted via: ExactAudioCopy v0.99pb5
#
DISCID=57073f07
DTITLE=Laura Cortese - Laura Cortese's Accoustic EP
DYEAR=2010
DGENRE=Folk
TTITLE0=Overcome
TTITLE1=Perfect Tuesdays
TTITLE2=5 Tune
TTITLE3=Du Petit Sarny
TTITLE4=Women of the Ages
TTITLE5=Wade On In
TTITLE6=Greasy Coat
EXTD=
EXTT0=
EXTT1=
EXTT2=
EXTT3=
EXTT4=
EXTT5=
EXTT6=
PLAYORDER=
